<svg xmlns="http://www.w3.org/2000/svg" width="574.477" height="210" viewBox="0 0 574.477 210">
  <g id="Grupo_43" data-name="Grupo 43" transform="translate(-580 590)">
    <g id="Grupo_5" data-name="Grupo 5" transform="translate(-107 -1025)">
      <path id="Caminho_1" data-name="Caminho 1" d="M140,132.5v-87H87v14a136.558,136.558,0,0,1-21.01,73H55v32H70v-20h70v20h15v-32Zm-13.75,0H82.14q2.6-4.665,4.86-9.53a149.382,149.382,0,0,0,13.75-54.85V55.5h25.5Z" transform="translate(687 435)"/>
      <path id="Caminho_2" data-name="Caminho 2" d="M105,0A105,105,0,1,0,210,105,105,105,0,0,0,105,0m0,202.5A97.5,97.5,0,1,1,202.5,105,97.5,97.5,0,0,1,105,202.5" transform="translate(687 435)"/>
    </g>
    <g id="Grupo_42" data-name="Grupo 42" transform="translate(-94.252 -1028.124)">
      <path id="Caminho_3" data-name="Caminho 3" d="M291.973,45.68A32.267,32.267,0,0,1,305.66,58.624a38.938,38.938,0,0,1,4.827,19.681,38.058,38.058,0,0,1-4.827,19.522,31.877,31.877,0,0,1-13.687,12.68,45.818,45.818,0,0,1-20.636,4.4H247.252V41.171h24.085a44.919,44.919,0,0,1,20.636,4.509m-.8,52.36q6.9-7,6.9-19.734,0-12.837-6.9-20.054t-19.84-7.214h-11.99v54h11.99q12.944,0,19.84-7" transform="translate(687 435.044)"/>
      <path id="Caminho_4" data-name="Caminho 4" d="M333.894,110.867a35.741,35.741,0,0,1-13.686-13.474,37.934,37.934,0,0,1-5.04-19.469,37.65,37.65,0,0,1,5.04-19.416,35.871,35.871,0,0,1,13.686-13.422,39.773,39.773,0,0,1,37.984,0,35.512,35.512,0,0,1,13.633,13.422A37.975,37.975,0,0,1,390.5,77.924a38.262,38.262,0,0,1-4.988,19.469,35.385,35.385,0,0,1-13.633,13.474,39.766,39.766,0,0,1-37.984,0m31.989-9.018a23.2,23.2,0,0,0,8.967-9.549,30.686,30.686,0,0,0,3.235-14.377A30.369,30.369,0,0,0,374.849,63.6a22.917,22.917,0,0,0-8.967-9.443,27.532,27.532,0,0,0-26.1,0,22.9,22.9,0,0,0-8.965,9.443,30.331,30.331,0,0,0-3.236,14.323A30.648,30.648,0,0,0,330.817,92.3a23.177,23.177,0,0,0,8.965,9.549,27.152,27.152,0,0,0,26.1,0" transform="translate(690.277 435)"/>
      <path id="Caminho_5" data-name="Caminho 5" d="M476.031,41.17v73.738h-12.1v-50.5l-22.493,50.5h-8.381l-22.6-50.5v50.5h-12.1V41.17h13.051L437.3,98.994,463.087,41.17Z" transform="translate(694.291 435.044)"/>
      <path id="Caminho_6" data-name="Caminho 6" d="M532.293,99.848H501.417l-5.305,15.067H483.487l26.418-73.845h14.005l26.419,73.845H537.6Zm-3.4-9.867L516.908,55.711l-12.1,34.269Z" transform="translate(698.399 435.039)"/>
      <path id="Caminho_7" data-name="Caminho 7" d="M268.928,158.9H255.216l-2.355,6.691h-5.607l11.733-32.8h6.219l11.733,32.8h-5.654Zm-1.507-4.383-5.324-15.22-5.372,15.22Z" transform="translate(687 439.465)"/>
      <path id="Caminho_8" data-name="Caminho 8" d="M297.437,165.584l-7.54-13.1h-4.1v13.1h-5.372V132.836h11.308a14.078,14.078,0,0,1,6.385,1.319,9.163,9.163,0,0,1,3.911,3.535,9.628,9.628,0,0,1,1.3,4.948,9.8,9.8,0,0,1-1.862,5.819,9.438,9.438,0,0,1-5.724,3.558l8.105,13.571ZM285.8,148.2h5.936a6.229,6.229,0,0,0,4.547-1.507,5.434,5.434,0,0,0,1.531-4.053,5.236,5.236,0,0,0-1.508-3.981,6.4,6.4,0,0,0-4.57-1.437H285.8Z" transform="translate(688.601 439.467)"/>
      <path id="Caminho_9" data-name="Caminho 9" d="M334.267,171.541l-5.748-6.22a16.76,16.76,0,0,1-4.666.613,16.958,16.958,0,0,1-8.411-2.145,15.879,15.879,0,0,1-6.078-5.983,17.777,17.777,0,0,1,0-17.27,15.931,15.931,0,0,1,6.078-5.96,17.659,17.659,0,0,1,16.87,0,15.771,15.771,0,0,1,6.055,5.96,17.974,17.974,0,0,1,.259,16.8,15.634,15.634,0,0,1-5.394,5.867l7.868,8.34Zm-20.19-16a10.282,10.282,0,0,0,3.981,4.24,12.057,12.057,0,0,0,11.592,0,10.292,10.292,0,0,0,3.982-4.24,13.628,13.628,0,0,0,1.437-6.385,13.487,13.487,0,0,0-1.437-6.361,10.178,10.178,0,0,0-3.982-4.194,12.224,12.224,0,0,0-11.592,0,10.168,10.168,0,0,0-3.981,4.194,13.462,13.462,0,0,0-1.437,6.361,13.6,13.6,0,0,0,1.437,6.385" transform="translate(689.889 439.447)"/>
      <path id="Caminho_10" data-name="Caminho 10" d="M349.537,132.836V153.71a6.71,6.71,0,0,0,7.4,7.492,7.582,7.582,0,0,0,5.49-1.884,7.447,7.447,0,0,0,1.955-5.608V132.836h5.372v20.779a12.519,12.519,0,0,1-1.743,6.785,10.812,10.812,0,0,1-4.666,4.147,15.045,15.045,0,0,1-6.455,1.367,14.9,14.9,0,0,1-6.432-1.367,10.553,10.553,0,0,1-4.593-4.147,12.788,12.788,0,0,1-1.7-6.785V132.836Z" transform="translate(691.676 439.467)"/>
      <rect id="Retângulo_2" data-name="Retângulo 2" width="5.371" height="32.748" transform="translate(1068.401 572.303)"/>
      <path id="Caminho_11" data-name="Caminho 11" d="M408.328,132.836v4.383h-8.717v28.366H394.24V137.219h-8.766v-4.383Z" transform="translate(693.67 439.467)"/>
      <path id="Caminho_12" data-name="Caminho 12" d="M417.817,137.173v9.612h11.308v4.382H417.817V161.2H430.54v4.382H412.446v-32.8H430.54v4.383Z" transform="translate(694.971 439.465)"/>
      <path id="Caminho_13" data-name="Caminho 13" d="M457.234,132.836v4.383h-8.717v28.366h-5.371V137.219H434.38v-4.383Z" transform="translate(696.029 439.467)"/>
      <path id="Caminho_14" data-name="Caminho 14" d="M466.678,132.836V153.71a6.709,6.709,0,0,0,7.4,7.492,7.581,7.581,0,0,0,5.489-1.884,7.447,7.447,0,0,0,1.955-5.608V132.836h5.372v20.779a12.519,12.519,0,0,1-1.743,6.785,10.813,10.813,0,0,1-4.666,4.147,15.045,15.045,0,0,1-6.454,1.367,14.891,14.891,0,0,1-6.432-1.367A10.547,10.547,0,0,1,463,160.4a12.788,12.788,0,0,1-1.7-6.785V132.836Z" transform="translate(697.329 439.467)"/>
      <path id="Caminho_15" data-name="Caminho 15" d="M509.378,165.584l-7.539-13.1h-4.1v13.1h-5.371V132.836h11.308a14.073,14.073,0,0,1,6.385,1.319,9.169,9.169,0,0,1,3.911,3.535,9.629,9.629,0,0,1,1.3,4.948,9.807,9.807,0,0,1-1.861,5.819,9.447,9.447,0,0,1-5.725,3.558l8.1,13.571ZM497.739,148.2h5.937a6.23,6.23,0,0,0,4.547-1.507,5.433,5.433,0,0,0,1.531-4.053,5.236,5.236,0,0,0-1.508-3.981,6.408,6.408,0,0,0-4.57-1.437h-5.937Z" transform="translate(698.827 439.467)"/>
      <path id="Caminho_16" data-name="Caminho 16" d="M540.609,158.9H526.9l-2.355,6.691h-5.607l11.733-32.8h6.219l11.733,32.8h-5.654Zm-1.509-4.383-5.324-15.22-5.372,15.22Z" transform="translate(700.109 439.465)"/>
    </g>
  </g>
</svg>
