<?xml version="1.0" encoding="UTF-8"?>
<svg id="Camada_2" fill="#EF9D03" xmlns="http://www.w3.org/2000/svg" viewBox="0 0 1375.87 300">
   <g id="Camada_1-2">
      <g id="Szsq6q.tif">
         <g>
            <path d="M730.12,300c-8.86-2.8-18.3-4.44-26.46-8.61-30.28-15.46-35.23-56.33-14.02-79.09,8.54-9.16,19.58-14.58,31.39-18.34,19.52-6.22,39.67-8.03,60.03-8.13,2.07-.01,4.15,0,6.1,0,2.91-15.09-2.14-30.48-12.73-35.87-14.49-7.37-29.63-6.43-44.48-.69-4.27,1.65-5.98,5.37-5.85,10.24,.24,8.74,0,8.75-8.89,8.75-6.34,0-12.69-.17-19.02,.06-4.08,.15-5.56-1.49-5.24-5.44,.68-8.11-1.65-16.51,2.67-24.27,6.15-11.02,16.76-15.51,27.99-18.33,19.6-4.92,39.37-5.45,59.14-.24,23.95,6.32,39.29,22.11,41.11,46.52,2.18,29.24,1.22,58.71,1.57,88.08,.11,9.3,1.32,10.54,10.67,10.63,12.59,.11,11.18-1.83,11.19,11.43,0,4.81-.13,9.62,0,14.42,.09,3.15-1.04,4.55-4.33,4.49-11.14-.21-22.29,.06-33.41-.45-10.52-.48-17.53-9.49-17.26-21.27,.02-1.07,.21-2.15,.17-1.76-6.84,6.01-13.76,13.6-22.11,18.93-6.37,4.07-14.56,5.27-21.92,7.77-.86,.29-1.65,.77-2.47,1.16h-13.84Zm57.41-87.98c-10.92,.5-21.35,.11-31.49,1.69-9.99,1.55-20.1,4.08-29.37,8.02-12.47,5.3-17.38,19.52-11.85,33.4,4.73,11.88,21.04,17.43,32.7,15.79,13.53-1.9,23.99-8.95,31.2-20.73,7.04-11.5,10.83-23.71,8.8-38.17Z" />
            <path d="M1259.41,300c-8.24-2.71-16.88-4.57-24.63-8.29-20.9-10.03-30.74-32.57-26.41-55.65,3.74-19.91,16.79-31.04,33.88-38.57,15.31-6.76,31.62-9.77,48.33-10.59,9.35-.46,18.7-1.02,28.06-1.53,.58-22.18-5.17-39.35-31.88-39.97-7.36-.17-14.85,.91-22.1,2.33-7.79,1.52-10.03,5.02-10.06,12.89-.02,7.6-.12,7.7-7.78,7.7-6.72,0-13.45-.12-20.16,.05-3.83,.09-5.86-1.22-5.56-5.3,.51-7.05-.32-14.51,1.73-21.08,4.16-13.34,16.12-18.42,28.28-21.52,19.5-4.98,39.18-5.58,59.05-.63,23.38,5.82,39.62,22.42,42.37,46.76,1.59,14.05,1.34,28.33,1.56,42.52,.24,15.75,.04,31.51,.06,47.27,0,7.24,1.56,8.64,8.75,8.92,4.34,.17,8.66,.81,12.99,1.24v28.85c-12.62-.03-25.25,.3-37.84-.24-7.56-.32-13.52-4.16-15.61-12.03-1-3.77-1.33-7.72-1.96-11.58-.33,0-.6-.08-.7,.01-.52,.53-1.08,1.05-1.48,1.67-5.47,8.28-12.33,15.26-21.39,19.29-7.19,3.19-14.97,5.05-22.49,7.49h-14.99Zm59.57-87.98c-11.41,.51-22.53,.45-33.5,1.66-11.07,1.23-22.1,3.31-31.63,9.91-10.5,7.26-13.46,21.75-7.96,33.03,6.01,12.35,26.99,17.29,40.81,12.31,21.39-7.7,34.36-35.21,32.29-56.92Z" />
            <path d="M150.1,0c4.35,4.93,9.26,9.48,12.95,14.86,9.99,14.54,9.52,30.44,4.62,46.57-1.09,3.59-2.93,6.95-4.75,11.17h22.35c-1.01,3.27-1.25,5.73-2.44,7.6-5.19,8.17-7.82,17.18-9.91,26.51-.35,1.58-3.1,3.6-4.85,3.71-6.64,.44-13.33,.18-21.1,.18,.74,10.39,1.42,20.02,2.19,30.83-14.46-9.57-21.74-21.83-23.24-37.82-1.58-16.91,5.18-31.34,12.91-45.57,9.27-17.05,13.05-34.99,8.49-54.24-.28-1.17,.29-2.53,.46-3.8,.77,0,1.54,0,2.31,0Z" />
            <path d="M112.72,81.21c0,2,.46,3.99-.08,5.65-3.09,9.54-1.48,18.97,.93,28.19,1.12,4.29-.17,5.6-3.66,7.35-5.06,2.53-10.27,5.31-14.35,9.11-7.11,6.62-8.87,12.43-.58,19.13,6.54,5.29,14.06,9.74,21.77,13.14,15.92,7.01,33.17,8.96,50.29,9.11,24.93,.22,49.56-2.5,71.61-15.87,3.07-1.86,6-4.12,8.53-6.66,6.23-6.26,6.17-12.22-.43-18.15-11.53-10.37-25.82-14.87-40.57-18.2-3.57-.81-4.24,1.54-4.23,4.39,.01,7.6,0,15.19,0,23.16-6.08-3.66-10.15-9.25-12.58-16.23-4.55-13.07-1.61-25.31,4.85-36.75,7.85-13.89,12.35-28.25,9.47-44.32-.05-.3,.3-.68,.81-1.74,6.24,2.96,9.87,8.36,12.01,14.23,1.85,5.08,1.67,10.86,2.82,16.24,.38,1.78,1.72,4.1,3.24,4.78,10.38,4.66,21.33,8.19,31.32,13.55,15.42,8.26,28.16,19.37,33.84,37.01,5.34,16.58,.93,30.92-9.35,43.79-13.8,17.29-33,26.03-53.63,31.92-24.36,6.95-49.19,8.47-74.42,6.09-18.94-1.78-37.16-5.82-54.43-13.88-.45-.21-1.1-.03-2.16-.03,1.89,10.95,6.9,20.28,13.27,28.72,10.08,13.35,22.74,23.59,38.86,28.96,27.07,9.01,51.57,3.83,73.81-13.55,1.06-.83,2.29-1.57,3.02-2.64,7.06-10.3,17.3-11.2,28.48-10.22,6.3,.55,12.67,.16,19.01,.23,4.02,.04,5.35,1.76,3.2,5.45-20.45,35.01-49.5,57.64-90.69,62.13-50.16,5.47-86.7-16.75-113.74-57.32-2.21-3.31-4.33-4.08-7.88-4.08-10.67,.01-21.35,.39-31.52-4.18C12.84,222.22,2.68,209.53,.43,191.5c-2.42-19.41,5.44-34.79,21.44-45.85,7.51-5.19,16.04-7.94,25.19-8.2,3.13-.09,4.69-.73,5.42-4.22,4.2-19.96,17.92-32.34,34.66-41.85,7.09-4.02,14.85-6.85,22.35-10.12,.77-.34,1.82-.05,3.22-.05Zm-62.35,85.15c-8.85-1.72-15.88,2.11-19.72,9.65-3.27,6.41-3.56,14.18,.84,20.58,5.48,7.97,13.6,10.04,22.67,8.41-1.27-12.92-2.5-25.53-3.79-38.64Z" />
            <path d="M909.13,214.56c0,25.17-.13,49.57,.11,73.96,.05,5.17-1.2,7.33-6.71,7.01-7.08-.42-14.23-.36-21.32-.01-4.78,.23-6.27-1.37-6.28-6.19-.04-62.29-.26-124.58-.44-186.86-.01-4.42-.05-8.84-.06-13.27,0-4.23-2.05-6.41-6.33-6.41-.58,0-1.15,0-1.73,0q-13.78-.18-13.78-14.24c0-3.46,.21-6.94-.05-10.38-.31-4.16,1.56-5.3,5.42-5.24,11.14,.17,22.29-.07,33.43,.11,11.43,.18,17.12,5.22,17.8,16.68,.69,11.69,.56,23.43,.59,35.15,.07,23.84,0,47.68,0,71.52,0,2.29,0,4.57,0,7.88,7.55-.35,14.83-.09,21.91-1.18,8.77-1.35,11.97-9.53,16.51-15.74,10.49-14.37,20.65-28.98,31.13-43.36,1.2-1.65,3.6-3.34,5.49-3.4,10.94-.36,21.9-.26,32.85-.22,.84,0,1.67,.75,3.49,1.62-19.38,26.23-38.52,52.13-57.79,78.21,13.19,14.43,21.06,33.97,30.77,52.25,5.2,9.79,11.3,14.39,22.05,12.84,5.38-.78,7.71,1.08,7.21,6.89-.53,6.11-.34,12.3-.2,18.45,.08,3.43-1.16,4.95-4.66,4.83-9.59-.32-19.2-.3-28.78-.8-8.2-.43-13.98-5.18-17.89-12.01-8-13.98-15.73-28.11-23.56-42.18-3.44-6.19-6.29-12.82-10.5-18.43-2.49-3.32-6.84-6.24-10.85-7.18-5.24-1.22-10.99-.3-17.84-.3Z" />
            <path d="M1082.93,183.25c7.85,0,15.36,.7,22.63-.3,3.45-.47,7.3-3.56,9.51-6.54,12.42-16.77,24.48-33.81,36.45-50.9,2.71-3.87,5.75-5.46,10.54-5.29,10.32,.36,20.66,.11,31.61,.11-.38,1.87-.26,3.35-.93,4.25-16.81,22.8-33.66,45.59-50.67,68.24-1.75,2.33-4.61,3.81-7.26,5.93,10.79,8.34,14.43,19.79,20.33,29.71,5.48,9.2,10.59,18.65,15.31,28.27,3.02,6.17,7.55,8.53,14.09,8.56,12.52,.05,12.52,.15,12.52,12.93,0,4.23-.17,8.47,.04,12.69,.17,3.45-1.11,4.91-4.61,4.82-9.79-.27-19.61-.06-29.38-.66-9.4-.57-15.16-6.84-19.39-14.52-10.06-18.26-20.2-36.49-29.74-55.02-4.15-8.06-9.91-11.7-18.78-11.12-3.8,.25-7.64,.04-12.28,.04,0,2.4,0,4.43,0,6.46-.01,22.88-.17,45.76,.08,68.64,.05,4.96-1.55,6.27-6.23,6.04-7.09-.36-14.23-.4-21.32-.02-5.42,.29-7.29-1.35-7.28-7.07,.13-64.41,0-128.82-.08-193.24,0-1.54,.04-3.08-.02-4.61-.22-5.17-2.21-7.94-8.12-7.86-13.34,.19-13.34-.06-13.33-13.37q.01-16.43,16.59-16.49c6.73-.02,13.45-.08,20.18-.02,13.95,.12,19.54,5.69,19.55,19.61,.03,34.8-.01,69.6-.02,104.41,0,2.08,0,4.16,0,6.33Z" />
            <path d="M527.64,213.33c1.34,19.92,8.48,36.22,25.05,46.21,30.01,18.09,57.6,9.61,84.15-10.66,4.7,7.74,9.45,15.27,13.74,23.05,.52,.94-1.05,3.8-2.38,4.87-16.26,13.14-34.86,20.84-55.73,22.18-24.24,1.56-47.08-2.83-66.71-18.36-27.67-21.9-37.22-51.13-33.72-85.29,2.12-20.63,9.71-39.11,24.82-53.72,23.58-22.79,51.92-29.75,83.33-22.17,26.92,6.49,42.77,24.89,50.52,51.16,3.72,12.6,3.67,25.24,3.26,38.07-.13,3.95-1.96,4.82-5.43,4.77-9.03-.13-18.06-.04-27.09-.05-28.82-.02-57.65-.04-86.47-.07-2.08,0-4.17,0-7.37,0Zm90.51-26.62c-1.59-22.59-15.08-43.33-43.64-41.39-25.21,1.72-41.41,19.05-44.81,41.39h88.45Z" />
            <path d="M430.26,150c0,27.41-.58,54.14,.25,80.82,.39,12.63,3.97,25.36,17.41,30.74,6.71,2.68,14.41,3.32,21.74,3.86,3.92,.29,5.6,.78,5.44,4.98-.26,6.91,.15,13.86-.31,20.75-.12,1.85-2.28,5.02-3.64,5.1-23.52,1.32-45.94-1.43-62.27-21.08-10.45-12.58-13.24-27.9-13.37-43.73-.2-25.19-.21-50.38,.04-75.57,.05-5.1-1.31-6.48-6.43-6.33-16.14,.48-16.18,.26-16.13-15.79,.05-15.19-1.77-13.33,13.61-13.23,3.03,.02,6.07,0,9.83,0,0-6.19,0-11.87,0-17.55,0-8.27,.09-16.54-.06-24.8-.07-3.65,1.19-5.28,5-5.19,7.88,.17,15.76,.23,23.63,.04,4.03-.1,5.36,1.39,5.29,5.39-.2,11.92-.07,23.84-.06,35.76,0,1.88,0,3.75,0,6.37,10.82,0,21.13,0,31.45,0q10.17,0,10.17,10.4c0,4.23-.21,8.47,.06,12.69,.29,4.51-1.44,6.15-5.98,6.05-10.18-.24-20.37-.09-30.55-.06-1.49,0-2.98,.21-5.11,.37Z" />
         </g>
      </g>
   </g>
</svg>