<?xml version="1.0" encoding="UTF-8"?>
<svg id="Camada_2" fill="#76018A" xmlns="http://www.w3.org/2000/svg" viewBox="0 0 1145.46 300">
   <g id="Camada_1-2">
      <g id="UxFQwy.tif">
         <g>
            <path d="M77.97,.12c23.25,0,46.51-.38,69.75,.22,8.14,.21,16.29,2.5,24.29,4.45,13.75,3.35,25.51,10.83,36.23,19.69,10.99,9.07,19.96,20.12,25.79,33.22,3.69,8.29,6.95,16.94,9.01,25.75,2.59,11.13,2.83,22.61,1.07,34.02-1.56,10.1-3.88,20.01-8.4,29.2-6.08,12.36-13.59,23.63-23.9,33.11-10.24,9.41-21.74,16.67-34.58,21.44-8.01,2.97-16.69,4.36-25.18,5.73-5.92,.95-12.08,1.23-18.06,.79-9.51-.71-19.01-1.97-28.42-3.54-22.86-3.83-42.25-14.96-59.69-29.67-12.34-10.41-22.4-22.92-29.51-37.39-4.75-9.65-8.73-19.8-11.85-30.09-2.26-7.45-3.36-15.48-3.55-23.28C.33,57.33,.37,30.88,0,4.44-.05,1.06,.89,.02,4.34,.04,28.89,.18,53.43,.11,77.97,.12Z" />
            <path d="M344.44,48.23c1.1-.08,1.98-.19,2.87-.19,25.57,.02,51.15-.12,76.72,.14,13.94,.14,26.32,5.11,37.35,13.65,9.87,7.64,17.35,17.19,21.43,28.88,4.12,11.8,5.43,23.96,2.95,36.59-1.94,9.88-5.26,18.94-11.2,26.92-10.06,13.5-22.95,23.09-39.89,25.85-7.42,1.21-15.05,1.32-22.59,1.47-11.22,.23-22.46,.06-34.28,.06v70.22h-33.35V48.23Zm33.83,31.44v70.25c15.03,0,29.72,.38,44.38-.21,4.89-.2,10.23-2,14.43-4.59,11.52-7.1,15.75-18.1,15.8-31.5,.07-18.28-14.32-34.5-34.25-33.99-11.99,.31-23.99,.05-35.99,.04-1.39,0-2.78,0-4.37,0Z" />
            <path d="M616.22,174.58c-2-39.95,34.62-78.2,80.12-76.25,38.02,1.63,74.67,33.32,73.63,78.73-.94,40.97-34.19,75.05-77.62,75-40.79-.05-78.07-34.17-76.12-77.48Zm121.85,.82c.21-26.38-20.61-46.06-45.57-45.91-24.27,.15-44.96,19.69-44.72,45.83,.24,25.78,19.55,45.61,45.08,45.53,26.05-.08,44.98-19.95,45.2-45.46Z" />
            <path d="M1004.52,102.39c10.2,0,19.98-.05,29.76,.09,.72,.01,1.66,1.24,2.07,2.1,.35,.74,.09,1.77,.09,2.68,0,45.34-.05,90.67,.09,136.01,.01,3.93-1.02,5.11-4.97,4.97-8.76-.3-17.54-.09-26.98-.09v-16.05l-1.04-.33c-1.32,1.41-2.65,2.82-3.96,4.24-8.23,8.97-18.53,13.62-30.51,15.25-17.54,2.39-33.53-1.12-47.03-12.73-8.24-7.08-13.61-16.21-16.11-27.09-1.99-8.69-2.86-17.35-2.82-26.23,.13-26.09,.11-52.18-.03-78.27-.02-3.5,.81-4.76,4.51-4.63,8,.28,16.02,.19,24.02,.04,2.89-.05,4.13,.6,4.12,3.85-.12,24.93-.18,49.86,0,74.79,.05,7.06,.43,14.2,1.65,21.14,1.45,8.26,7.12,14.17,14.62,16.99,12.73,4.79,25.69,4.72,37.5-3.07,7.67-5.06,12.38-12.55,13.48-21.71,.97-8.14,1.4-16.38,1.48-24.58,.2-20.66,.06-41.33,.05-62,0-1.64,0-3.29,0-5.36Z" />
            <path d="M775.92,127.2c19.37-20.36,38.75-40.72,58.85-61.85v39.23c1.72,.08,3.08,.2,4.43,.21,9.3,.02,18.6,.09,27.9-.04,2.68-.04,3.67,.81,3.6,3.55-.15,6.43-.05,12.87-.05,19.82h-35.47c-.1,1.75-.24,3-.24,4.25,0,24.93,.09,49.86-.05,74.79-.05,9.22,6.04,14.94,14.42,14.72,6.12-.16,12.26-.14,18.38,.09,1.01,.04,2.78,1.59,2.8,2.47,.21,8.5,.13,17.01,.13,25.73-10.6,1.87-20.95,3.18-31.38,.7-5.42-1.29-11.04-2.22-16.13-4.36-10.71-4.52-16.03-13.73-18.29-24.56-1.3-6.22-1.59-12.74-1.64-19.13-.18-23.38-.15-46.76,.02-70.14,.03-3.68-1.15-4.65-4.64-4.55-7.43,.22-14.88,.07-22.32,.07-.11-.33-.22-.66-.33-1Z" />
            <path d="M89.31,236.93c0,8.75,.8,17.6-.19,26.24-1.37,11.92-7.54,21.5-17.53,28.5-8.01,5.61-16.93,8.76-26.59,8.29-17.04-.82-32.12-10.21-38.88-26.86-7.9-19.42-3.39-36.03,11.61-49.98,7-6.51,15.54-10.3,25.25-10.57,14.16-.4,28.33-.43,42.49-.85,3.69-.11,4.65,1.31,4.57,4.7-.17,6.84-.05,13.69-.05,20.54-.22,0-.44,0-.67,0Z" />
            <path d="M1145.46,136.87c-5.23,.71-10.21,1.13-15.08,2.1-12.6,2.51-25.24,10.58-28.03,25.39-.8,4.25-1.46,8.61-1.49,12.92-.15,23.5-.15,46.99-.02,70.49,.02,3.48-1.09,4.41-4.43,4.32-7.48-.22-14.98-.27-22.46,.04-3.86,.16-5.07-.86-5.04-4.89,.17-29.95,.09-59.9,.08-89.86,0-15.62,.11-31.24-.08-46.86-.04-3.51,1.09-4.38,4.43-4.29,7.87,.23,15.75,.22,23.62,0,3.18-.09,4.01,1.03,3.89,4.02-.21,5.28-.06,10.57,.47,16.3,5.29-6.95,10.6-13.71,18.63-17.6,8.02-3.89,16.32-5.85,25.51-4.92v32.83Z" />
            <path d="M552.36,126.84c4.88-7.05,10.11-13.7,17.93-17.63,7.81-3.93,15.93-6.18,25.72-5.1,0,8.16,0,16.34-.01,24.52,0,.51-.19,1.01-.26,1.52-.31,2.39,.22,5.65-1.13,6.94-1.39,1.33-4.61,.85-7.03,.95-10.24,.44-18.95,4.32-26.4,11.32-5.92,5.55-8.88,12.59-9.09,20.38-.58,21.9-.65,43.81-.9,65.71-.05,4-.21,8.02,.06,12,.23,3.45-.69,4.82-4.46,4.67-7.61-.3-15.24-.27-22.85-.01-3.59,.12-4.6-.96-4.59-4.57,.12-40.15,.08-80.31,.08-120.46,0-5.81,.09-11.62-.04-17.43-.06-2.5,.8-3.43,3.34-3.4,8.39,.11,16.79,.12,25.18,0,2.57-.04,3.38,.91,3.32,3.4-.13,5.52-.04,11.04-.04,16.56,.39,.21,.78,.42,1.17,.62Z" />
         </g>
      </g>
   </g>
</svg>