<?xml version="1.0" encoding="UTF-8"?>
<svg id="Camada_2" fill="#0ABF02" xmlns="http://www.w3.org/2000/svg" viewBox="0 0 735.45 300">
   <g id="Camada_1-2">
      <g id="oZOIVX.tif">
         <g>
            <path d="M379.73,198.87h-23.86c-3.14-5.97-5.53-12.05-9.21-17.22-7.28-10.25-17.82-15.97-30.1-17.85-18.8-2.88-36.06,.74-49.7,14.87-22,22.78-21.26,64.46,1.78,86.26,25.9,24.51,75.31,19.66,88.63-24.06,.13-.41-.06-.92-.13-1.79h-48.65v-19.91h71.73v78.67c-6.05,0-11.87-.06-17.69,.03-2.74,.04-3.04-1.56-2.98-3.7,.19-6.42,.35-12.84,.48-19.26,.02-.87-.22-1.74-.46-3.51-1.28,1.34-2.07,1.97-2.6,2.76-11.16,16.5-27,24.59-46.63,25.68-24.32,1.34-45.09-6.72-61.59-24.57-11.53-12.47-17.91-27.51-19.82-44.5-2.17-19.38,1.59-37.37,12.05-53.79,12.95-20.31,32-31,55.62-34.09,20.12-2.63,38.71,1.57,55.29,13.27,14.75,10.41,23.55,24.88,27.84,42.69Z" />
            <path d="M451.02,250.08v-20.21c6.67,.5,13.11,1.41,19.54,1.38,19.23-.1,32.6-15.74,30.87-34.99-.59-6.61-1.85-12.75-5.37-18.34-4.78-7.59-12.03-12.14-20.63-12.63-13.87-.78-27.82-.21-42.16-.21v132.75c-6.98,0-13.56,.08-20.13-.11-.76-.02-1.59-1.49-2.16-2.42-.28-.46-.07-1.24-.07-1.87,0-48.57,0-97.13,0-145.7,0-.77,.09-1.54,.16-2.84,1.95-.11,3.77-.29,5.6-.29,18.07,0,36.13-.06,54.2,.04,28.1,.15,48.77,18.53,52.46,46.51,3.76,28.54-13.64,53.37-41.68,59.75-10.29,2.34-20.34,.76-30.65-.83Z" />
            <path d="M100.85,145.19c23.17,.07,46.23-1.54,68.93,.68,22.86,2.24,38.11,19.52,42.39,42.34,5.53,29.45-14.07,60.44-46.41,63.23-7.59,.65-15.35-.51-23.01-1.12-1.04-.08-2.74-1.76-2.79-2.75-.26-5.96-.13-11.95-.13-17.79,6.57,.54,12.69,1.43,18.81,1.48,21.35,.19,33.8-16.26,31.85-37.28-1.49-16.11-11.41-26.18-24.41-28.53-.93-.17-1.87-.44-2.8-.45-13.29-.03-26.58-.02-40.4-.02v132.55h-22.02V145.19Z" />
            <path d="M684.88,121.64c-27.29-7.81-51.21-.82-73.75,13.23-14.5,9.04-29.43,17.03-46.25,21.03-2.59,.62-3.96,.52-5.39-1.92-2.34-3.99-5.15-7.71-8.28-12.32,33.05-6.52,58.43-22.36,74.45-51.35,15.77-28.53,17.05-58.79,10.08-90.23,4.96,0,9.48-.27,13.93,.17,1.29,.13,3.28,2.23,3.41,3.57,1.23,12.69,3.17,25.43,2.88,38.11-.4,17.31-4.98,33.94-13.42,49.25-2.71,4.92-6.18,9.44-9.29,14.14-.64,.97-1.23,1.97-1.19,3.8,2.81-1.18,5.61-2.39,8.44-3.53,9.82-3.94,19.92-4.78,30.18-2.23,1.91,.47,3.97,1.96,5.1,3.58,3.13,4.49,5.81,9.29,9.11,14.7Z" />
            <path d="M24.29,183c6.99,0,13.14,.06,19.28-.02,3.6-.05,3.01,2.46,3.01,4.6,.02,15.18,0,30.37,0,45.55,0,12.97,0,25.94,0,38.91,0,1.71,0,3.41,0,5.68h23.72v19.77H.38v-19.55H24.29v-94.93Z" />
            <path d="M600.22,6.86c4.97-1.61,9.71-3.16,14.47-4.7,14.81,47.89-2.52,107.93-70.56,121.15-.96-4.47-2.08-8.96-2.77-13.51-.12-.77,1.42-2.43,2.42-2.63,14.22-2.92,26.86-9.08,37.64-18.71,10.57-9.43,16.75-21.48,19.6-35.28,3.17-15.35,2.46-30.67-.79-46.33Z" />
            <path d="M724.72,141.38c-44.68-35.23-58.3-81.65-53.05-135.63,.76,.21,1.36,.32,1.91,.54,13.9,5.57,13.76,5.57,13.54,20.32-.44,29.39,6.54,56.58,25.08,80,4.98,6.29,11.02,11.73,16.42,17.7,.88,.97,1.57,2.93,1.21,4.06-1.4,4.32-3.28,8.48-5.1,13.01Z" />
            <path d="M578.5,172.46c18.05-4.16,33.27-14.1,48.85-23.35,26.19-15.56,52.18-14.28,77.9,1.2,3.08,1.85,6.06,3.89,9.6,6.18-3.28,3.38-6.02,6.6-9.22,9.26-.95,.79-3.35,.46-4.82-.08-8.99-3.28-17.66-7.78-26.89-9.95-15.86-3.74-29.98,2.01-43.54,10.13-10.37,6.21-21.34,11.43-32.15,16.86-1.36,.68-3.73,.5-5.13-.24-5.09-2.67-9.97-5.75-14.93-8.67l.34-1.33Z" />
            <path d="M70.28,164.88c-22.73,0-45.01,.03-67.29-.12-.99,0-2.77-1.67-2.82-2.62-.27-5.63-.13-11.28-.13-17.24H70.28v19.98Z" />
            <path d="M540.38,87.21c1.28-6.05,2.27-11.11,3.5-16.11,.21-.85,1.28-1.76,2.17-2.15,15.63-6.77,21.74-19.27,21.25-35.53-.08-2.76,.35-4.54,2.54-6.27,3.54-2.79,6.81-5.92,11.11-9.71,3.52,14.15,3.4,27.1-1.84,39.53-6.99,16.6-20.23,25.9-38.73,30.23Z" />
            <path d="M706.96,29.56c14.13,9.74,31.95,46.42,27.9,71.27-14.1-8.37-27.5-42.61-27.9-71.27Z" />
            <path d="M685.71,181.19c-18.98,10.58-38.61,14.02-59.54,11.45,11.8-6.11,21.31-16.47,35.51-17.96,6.44-.67,17.57,1.8,24.02,6.5Z" />
         </g>
      </g>
   </g>
</svg>